<svg class="recharts-surface" width="454" height="139" viewBox="0 0 454 139" style="width: 100%; height: 100%;"><title></title><desc></desc><defs><clipPath id="recharts7-clip"><rect x="50" y="5" height="99" width="394"></rect></clipPath></defs><g class="recharts-layer recharts-cartesian-axis recharts-yAxis yAxis text-subtext3"><g class="recharts-cartesian-axis-ticks"><g class="recharts-layer recharts-cartesian-axis-tick"><text orientation="left" width="60" height="99" stroke="none" x="42" y="104" class="recharts-text recharts-cartesian-axis-tick-value" text-anchor="end" fill="hsl(var(--color-gray-600))"><tspan x="42" dy="0.355em">0</tspan></text></g><g class="recharts-layer recharts-cartesian-axis-tick"><text orientation="left" width="60" height="99" stroke="none" x="42" y="71.00000000000001" class="recharts-text recharts-cartesian-axis-tick-value" text-anchor="end" fill="hsl(var(--color-gray-600))"><tspan x="42" dy="0.355em">20</tspan></text></g><g class="recharts-layer recharts-cartesian-axis-tick"><text orientation="left" width="60" height="99" stroke="none" x="42" y="38.00000000000001" class="recharts-text recharts-cartesian-axis-tick-value" text-anchor="end" fill="hsl(var(--color-gray-600))"><tspan x="42" dy="0.355em">40</tspan></text></g><g class="recharts-layer recharts-cartesian-axis-tick"><text orientation="left" width="60" height="99" stroke="none" x="42" y="8.2421875" class="recharts-text recharts-cartesian-axis-tick-value" text-anchor="end" fill="hsl(var(--color-gray-600))"><tspan x="42" dy="0.355em">60</tspan></text></g></g></g><g class="recharts-cartesian-grid"><g class="recharts-cartesian-grid-horizontal"><line stroke-opacity="1" stroke="hsl(var(--color-gray-100))" fill="none" x="50" y="5" width="394" height="99" x1="50" y1="104" x2="444" y2="104"></line><line stroke-opacity="1" stroke="hsl(var(--color-gray-100))" fill="none" x="50" y="5" width="394" height="99" x1="50" y1="71.00000000000001" x2="444" y2="71.00000000000001"></line><line stroke-opacity="1" stroke="hsl(var(--color-gray-100))" fill="none" x="50" y="5" width="394" height="99" x1="50" y1="38.00000000000001" x2="444" y2="38.00000000000001"></line><line stroke-opacity="1" stroke="hsl(var(--color-gray-100))" fill="none" x="50" y="5" width="394" height="99" x1="50" y1="5" x2="444" y2="5"></line></g></g><g class="recharts-layer recharts-bar"><g class="recharts-layer recharts-bar-rectangles"><g class="recharts-layer"><g class="recharts-layer recharts-bar-rectangle"><path x="420.0785714285714" y="100.7" width="8" height="3.299999999999997" radius="2" fill="var(--color-Posts)" stroke-width="3" class="recharts-rectangle" d="M 420.0785714285714,102.35 A 1.6499999999999986,1.6499999999999986,0,0,1,421.7285714285714,100.7 L 426.42857142857144,100.7 A 1.6499999999999986,1.6499999999999986,0,0,1,428.0785714285714,102.35 L 428.0785714285714,102.35 A 1.6499999999999986,1.6499999999999986,0,0,1,426.42857142857144,104 L 421.7285714285714,104 A 1.6499999999999986,1.6499999999999986,0,0,1,420.0785714285714,102.35 Z"></path></g><g class="recharts-layer recharts-bar-rectangle"><path x="391.9357142857143" y="97.39999999999999" width="8" height="6.6000000000000085" radius="2" fill="var(--color-Posts)" stroke-width="3" class="recharts-rectangle" d="M 391.9357142857143,99.39999999999999 A 2,2,0,0,1,393.9357142857143,97.39999999999999 L 397.9357142857143,97.39999999999999 A 2,2,0,0,1,399.9357142857143,99.39999999999999 L 399.9357142857143,102 A 2,2,0,0,1,397.9357142857143,104 L 393.9357142857143,104 A 2,2,0,0,1,391.9357142857143,102 Z"></path></g><g class="recharts-layer recharts-bar-rectangle"><path x="363.79285714285714" y="95.75" width="8" height="8.25" radius="2" fill="var(--color-Posts)" stroke-width="3" class="recharts-rectangle" d="M 363.79285714285714,97.75 A 2,2,0,0,1,365.79285714285714,95.75 L 369.79285714285714,95.75 A 2,2,0,0,1,371.79285714285714,97.75 L 371.79285714285714,102 A 2,2,0,0,1,369.79285714285714,104 L 365.79285714285714,104 A 2,2,0,0,1,363.79285714285714,102 Z"></path></g><g class="recharts-layer recharts-bar-rectangle"></g><g class="recharts-layer recharts-bar-rectangle"></g><g class="recharts-layer recharts-bar-rectangle"><path x="279.3642857142857" y="99.05" width="8" height="4.950000000000003" radius="2" fill="var(--color-Posts)" stroke-width="3" class="recharts-rectangle" d="M 279.3642857142857,101.05 A 2,2,0,0,1,281.3642857142857,99.05 L 285.3642857142857,99.05 A 2,2,0,0,1,287.3642857142857,101.05 L 287.3642857142857,102 A 2,2,0,0,1,285.3642857142857,104 L 281.3642857142857,104 A 2,2,0,0,1,279.3642857142857,102 Z"></path></g><g class="recharts-layer recharts-bar-rectangle"><path x="251.22142857142856" y="95.75" width="8" height="8.25" radius="2" fill="var(--color-Posts)" stroke-width="3" class="recharts-rectangle" d="M 251.22142857142856,97.75 A 2,2,0,0,1,253.22142857142856,95.75 L 257.22142857142853,95.75 A 2,2,0,0,1,259.22142857142853,97.75 L 259.22142857142853,102 A 2,2,0,0,1,257.22142857142853,104 L 253.22142857142856,104 A 2,2,0,0,1,251.22142857142856,102 Z"></path></g><g class="recharts-layer recharts-bar-rectangle"><path x="223.07857142857142" y="94.10000000000001" width="8" height="9.899999999999991" radius="2" fill="var(--color-Posts)" stroke-width="3" class="recharts-rectangle" d="M 223.07857142857142,96.10000000000001 A 2,2,0,0,1,225.07857142857142,94.10000000000001 L 229.07857142857142,94.10000000000001 A 2,2,0,0,1,231.07857142857142,96.10000000000001 L 231.07857142857142,102 A 2,2,0,0,1,229.07857142857142,104 L 225.07857142857142,104 A 2,2,0,0,1,223.07857142857142,102 Z"></path></g><g class="recharts-layer recharts-bar-rectangle"><path x="194.93571428571428" y="92.44999999999999" width="8" height="11.550000000000011" radius="2" fill="var(--color-Posts)" stroke-width="3" class="recharts-rectangle" d="M 194.93571428571428,94.44999999999999 A 2,2,0,0,1,196.93571428571428,92.44999999999999 L 200.93571428571428,92.44999999999999 A 2,2,0,0,1,202.93571428571428,94.44999999999999 L 202.93571428571428,102 A 2,2,0,0,1,200.93571428571428,104 L 196.93571428571428,104 A 2,2,0,0,1,194.93571428571428,102 Z"></path></g><g class="recharts-layer recharts-bar-rectangle"><path x="166.79285714285712" y="94.10000000000001" width="8" height="9.899999999999991" radius="2" fill="var(--color-Posts)" stroke-width="3" class="recharts-rectangle" d="M 166.79285714285712,96.10000000000001 A 2,2,0,0,1,168.79285714285712,94.10000000000001 L 172.79285714285712,94.10000000000001 A 2,2,0,0,1,174.79285714285712,96.10000000000001 L 174.79285714285712,102 A 2,2,0,0,1,172.79285714285712,104 L 168.79285714285712,104 A 2,2,0,0,1,166.79285714285712,102 Z"></path></g><g class="recharts-layer recharts-bar-rectangle"><path x="138.65000000000003" y="102.35" width="8" height="1.6500000000000057" radius="2" fill="var(--color-Posts)" stroke-width="3" class="recharts-rectangle" d="M 138.65000000000003,103.175 A 0.8250000000000028,0.8250000000000028,0,0,1,139.47500000000002,102.35 L 145.82500000000005,102.35 A 0.8250000000000028,0.8250000000000028,0,0,1,146.65000000000003,103.175 L 146.65000000000003,103.175 A 0.8250000000000028,0.8250000000000028,0,0,1,145.82500000000005,104 L 139.47500000000002,104 A 0.8250000000000028,0.8250000000000028,0,0,1,138.65000000000003,103.175 Z"></path></g><g class="recharts-layer recharts-bar-rectangle"><path x="110.50714285714287" y="99.05" width="8" height="4.950000000000003" radius="2" fill="var(--color-Posts)" stroke-width="3" class="recharts-rectangle" d="M 110.50714285714287,101.05 A 2,2,0,0,1,112.50714285714287,99.05 L 116.50714285714287,99.05 A 2,2,0,0,1,118.50714285714287,101.05 L 118.50714285714287,102 A 2,2,0,0,1,116.50714285714287,104 L 112.50714285714287,104 A 2,2,0,0,1,110.50714285714287,102 Z"></path></g><g class="recharts-layer recharts-bar-rectangle"><path x="82.3642857142857" y="99.05" width="8" height="4.950000000000003" radius="2" fill="var(--color-Posts)" stroke-width="3" class="recharts-rectangle" d="M 82.3642857142857,101.05 A 2,2,0,0,1,84.3642857142857,99.05 L 88.3642857142857,99.05 A 2,2,0,0,1,90.3642857142857,101.05 L 90.3642857142857,102 A 2,2,0,0,1,88.3642857142857,104 L 84.3642857142857,104 A 2,2,0,0,1,82.3642857142857,102 Z"></path></g><g class="recharts-layer recharts-bar-rectangle"></g></g></g><g class="recharts-layer"></g></g><g class="recharts-layer recharts-bar"><g class="recharts-layer recharts-bar-rectangles"><g class="recharts-layer"><g class="recharts-layer recharts-bar-rectangle"><path x="430.8928571428571" y="79.25" width="8" height="24.75" radius="2" fill="var(--color-Replies)" stroke-width="3" class="recharts-rectangle" d="M 430.8928571428571,81.25 A 2,2,0,0,1,432.8928571428571,79.25 L 436.8928571428571,79.25 A 2,2,0,0,1,438.8928571428571,81.25 L 438.8928571428571,102 A 2,2,0,0,1,436.8928571428571,104 L 432.8928571428571,104 A 2,2,0,0,1,430.8928571428571,102 Z"></path></g><g class="recharts-layer recharts-bar-rectangle"><path x="402.75" y="59.45" width="8" height="44.55" radius="2" fill="var(--color-Replies)" stroke-width="3" class="recharts-rectangle" d="M 402.75,61.45 A 2,2,0,0,1,404.75,59.45 L 408.75,59.45 A 2,2,0,0,1,410.75,61.45 L 410.75,102 A 2,2,0,0,1,408.75,104 L 404.75,104 A 2,2,0,0,1,402.75,102 Z"></path></g><g class="recharts-layer recharts-bar-rectangle"><path x="374.60714285714283" y="38.00000000000001" width="8" height="66" radius="2" fill="var(--color-Replies)" stroke-width="3" class="recharts-rectangle" d="M 374.60714285714283,40.00000000000001 A 2,2,0,0,1,376.60714285714283,38.00000000000001 L 380.60714285714283,38.00000000000001 A 2,2,0,0,1,382.60714285714283,40.00000000000001 L 382.60714285714283,102 A 2,2,0,0,1,380.60714285714283,104 L 376.60714285714283,104 A 2,2,0,0,1,374.60714285714283,102 Z"></path></g><g class="recharts-layer recharts-bar-rectangle"><path x="346.4642857142857" y="69.35000000000001" width="8" height="34.64999999999999" radius="2" fill="var(--color-Replies)" stroke-width="3" class="recharts-rectangle" d="M 346.4642857142857,71.35000000000001 A 2,2,0,0,1,348.4642857142857,69.35000000000001 L 352.4642857142857,69.35000000000001 A 2,2,0,0,1,354.4642857142857,71.35000000000001 L 354.4642857142857,102 A 2,2,0,0,1,352.4642857142857,104 L 348.4642857142857,104 A 2,2,0,0,1,346.4642857142857,102 Z"></path></g><g class="recharts-layer recharts-bar-rectangle"><path x="318.32142857142856" y="74.3" width="8" height="29.700000000000003" radius="2" fill="var(--color-Replies)" stroke-width="3" class="recharts-rectangle" d="M 318.32142857142856,76.3 A 2,2,0,0,1,320.32142857142856,74.3 L 324.32142857142856,74.3 A 2,2,0,0,1,326.32142857142856,76.3 L 326.32142857142856,102 A 2,2,0,0,1,324.32142857142856,104 L 320.32142857142856,104 A 2,2,0,0,1,318.32142857142856,102 Z"></path></g><g class="recharts-layer recharts-bar-rectangle"><path x="290.1785714285714" y="84.2" width="8" height="19.799999999999997" radius="2" fill="var(--color-Replies)" stroke-width="3" class="recharts-rectangle" d="M 290.1785714285714,86.2 A 2,2,0,0,1,292.1785714285714,84.2 L 296.1785714285714,84.2 A 2,2,0,0,1,298.1785714285714,86.2 L 298.1785714285714,102 A 2,2,0,0,1,296.1785714285714,104 L 292.1785714285714,104 A 2,2,0,0,1,290.1785714285714,102 Z"></path></g><g class="recharts-layer recharts-bar-rectangle"><path x="262.0357142857143" y="46.24999999999999" width="8" height="57.75000000000001" radius="2" fill="var(--color-Replies)" stroke-width="3" class="recharts-rectangle" d="M 262.0357142857143,48.24999999999999 A 2,2,0,0,1,264.0357142857143,46.24999999999999 L 268.0357142857143,46.24999999999999 A 2,2,0,0,1,270.0357142857143,48.24999999999999 L 270.0357142857143,102 A 2,2,0,0,1,268.0357142857143,104 L 264.0357142857143,104 A 2,2,0,0,1,262.0357142857143,102 Z"></path></g><g class="recharts-layer recharts-bar-rectangle"><path x="233.89285714285714" y="49.55" width="8" height="54.45" radius="2" fill="var(--color-Replies)" stroke-width="3" class="recharts-rectangle" d="M 233.89285714285714,51.55 A 2,2,0,0,1,235.89285714285714,49.55 L 239.89285714285714,49.55 A 2,2,0,0,1,241.89285714285714,51.55 L 241.89285714285714,102 A 2,2,0,0,1,239.89285714285714,104 L 235.89285714285714,104 A 2,2,0,0,1,233.89285714285714,102 Z"></path></g><g class="recharts-layer recharts-bar-rectangle"><path x="205.75" y="36.349999999999994" width="8" height="67.65" radius="2" fill="var(--color-Replies)" stroke-width="3" class="recharts-rectangle" d="M 205.75,38.349999999999994 A 2,2,0,0,1,207.75,36.349999999999994 L 211.75,36.349999999999994 A 2,2,0,0,1,213.75,38.349999999999994 L 213.75,102 A 2,2,0,0,1,211.75,104 L 207.75,104 A 2,2,0,0,1,205.75,102 Z"></path></g><g class="recharts-layer recharts-bar-rectangle"><path x="177.60714285714283" y="18.199999999999996" width="8" height="85.80000000000001" radius="2" fill="var(--color-Replies)" stroke-width="3" class="recharts-rectangle" d="M 177.60714285714283,20.199999999999996 A 2,2,0,0,1,179.60714285714283,18.199999999999996 L 183.60714285714283,18.199999999999996 A 2,2,0,0,1,185.60714285714283,20.199999999999996 L 185.60714285714283,102 A 2,2,0,0,1,183.60714285714283,104 L 179.60714285714283,104 A 2,2,0,0,1,177.60714285714283,102 Z"></path></g><g class="recharts-layer recharts-bar-rectangle"><path x="149.46428571428572" y="59.45" width="8" height="44.55" radius="2" fill="var(--color-Replies)" stroke-width="3" class="recharts-rectangle" d="M 149.46428571428572,61.45 A 2,2,0,0,1,151.46428571428572,59.45 L 155.46428571428572,59.45 A 2,2,0,0,1,157.46428571428572,61.45 L 157.46428571428572,102 A 2,2,0,0,1,155.46428571428572,104 L 151.46428571428572,104 A 2,2,0,0,1,149.46428571428572,102 Z"></path></g><g class="recharts-layer recharts-bar-rectangle"><path x="121.32142857142856" y="54.5" width="8" height="49.5" radius="2" fill="var(--color-Replies)" stroke-width="3" class="recharts-rectangle" d="M 121.32142857142856,56.5 A 2,2,0,0,1,123.32142857142856,54.5 L 127.32142857142856,54.5 A 2,2,0,0,1,129.32142857142856,56.5 L 129.32142857142856,102 A 2,2,0,0,1,127.32142857142856,104 L 123.32142857142856,104 A 2,2,0,0,1,121.32142857142856,102 Z"></path></g><g class="recharts-layer recharts-bar-rectangle"><path x="93.17857142857144" y="42.949999999999996" width="8" height="61.050000000000004" radius="2" fill="var(--color-Replies)" stroke-width="3" class="recharts-rectangle" d="M 93.17857142857144,44.949999999999996 A 2,2,0,0,1,95.17857142857144,42.949999999999996 L 99.17857142857144,42.949999999999996 A 2,2,0,0,1,101.17857142857144,44.949999999999996 L 101.17857142857144,102 A 2,2,0,0,1,99.17857142857144,104 L 95.17857142857144,104 A 2,2,0,0,1,93.17857142857144,102 Z"></path></g><g class="recharts-layer recharts-bar-rectangle"><path x="65.03571428571428" y="52.849999999999994" width="8" height="51.150000000000006" radius="2" fill="var(--color-Replies)" stroke-width="3" class="recharts-rectangle" d="M 65.03571428571428,54.849999999999994 A 2,2,0,0,1,67.03571428571428,52.849999999999994 L 71.03571428571428,52.849999999999994 A 2,2,0,0,1,73.03571428571428,54.849999999999994 L 73.03571428571428,102 A 2,2,0,0,1,71.03571428571428,104 L 67.03571428571428,104 A 2,2,0,0,1,65.03571428571428,102 Z"></path></g></g></g><g class="recharts-layer"></g></g><g class="recharts-layer recharts-cartesian-axis recharts-xAxis xAxis text-subtext3"><g class="recharts-cartesian-axis-ticks"><g class="recharts-layer recharts-cartesian-axis-tick"><text orientation="bottom" width="394" height="30" stroke="none" x="396.7857142857143" y="118" class="recharts-text recharts-cartesian-axis-tick-value" text-anchor="middle" fill="#666"><tspan x="396.7857142857143" dy="0.71em">Mar 16</tspan></text></g><g class="recharts-layer recharts-cartesian-axis-tick"><text orientation="bottom" width="394" height="30" stroke="none" x="312.35714285714283" y="118" class="recharts-text recharts-cartesian-axis-tick-value" text-anchor="middle" fill="#666"><tspan x="312.35714285714283" dy="0.71em">Mar 13</tspan></text></g><g class="recharts-layer recharts-cartesian-axis-tick"><text orientation="bottom" width="394" height="30" stroke="none" x="227.92857142857144" y="118" class="recharts-text recharts-cartesian-axis-tick-value" text-anchor="middle" fill="#666"><tspan x="227.92857142857144" dy="0.71em">Mar 10</tspan></text></g><g class="recharts-layer recharts-cartesian-axis-tick"><text orientation="bottom" width="394" height="30" stroke="none" x="143.50000000000003" y="118" class="recharts-text recharts-cartesian-axis-tick-value" text-anchor="middle" fill="#666"><tspan x="143.50000000000003" dy="0.71em">Mar 7</tspan></text></g><g class="recharts-layer recharts-cartesian-axis-tick"><text orientation="bottom" width="394" height="30" stroke="none" x="59.07142857142857" y="118" class="recharts-text recharts-cartesian-axis-tick-value" text-anchor="middle" fill="#666"><tspan x="59.07142857142857" dy="0.71em">Mar 4</tspan></text></g></g></g></svg>
